<?xml version="1.0" encoding="iso-8859-1"?>
<!-- Generator: Adobe Illustrator 19.0.0, SVG Export Plug-In . SVG Version: 6.00 Build 0)  -->
<svg version="1.1" id="Capa_1" xmlns="http://www.w3.org/2000/svg" xmlns:xlink="http://www.w3.org/1999/xlink" x="0px" y="0px"
	 viewBox="0 0 511.874 511.874" style="enable-background:new 0 0 511.874 511.874;" xml:space="preserve">
<path style="fill:#5D9CEC;" d="M255.937,355.959c6.639,0,11.996,5.358,11.996,11.997s-5.357,11.997-11.996,11.997
	c-6.639,0-11.997-5.358-11.997-11.997S249.298,355.959,255.937,355.959z"/>
<g>
	<path style="fill:#CCD1D9;" d="M507.875,372.112v15.84c0,13.513-10.48,23.994-23.994,23.994c-5.678,0-85.018,0-176.035,0
		c-34.068,0-69.748,0-103.817,0c-91.017,0-170.357,0-176.035,0C14.482,411.946,4,401.465,4,387.952v-15.84
		c0,13.2,10.794,23.994,23.994,23.994h227.943H483.88C497.082,396.106,507.875,385.312,507.875,372.112z"/>
	<path style="fill:#CCD1D9;" d="M307.845,411.946l15.996,71.982H188.032l15.996-71.982
		C238.098,411.946,273.777,411.946,307.845,411.946z"/>
</g>
<g style="opacity:0.5;">
	<polygon style="fill:#FFFFFF;" points="200.482,427.942 188.032,483.928 204.028,483.928 216.478,427.942 	"/>
</g>
<g style="opacity:0.1;">
	<polygon points="311.392,427.942 323.841,483.928 307.845,483.928 295.396,427.942 	"/>
</g>
<g style="opacity:0.5;">
	<path style="fill:#FFFFFF;" d="M29.446,396.106h-1.453c-13.2,0-23.994-10.794-23.994-23.994v15.84
		c0,13.513,10.482,23.994,23.994,23.994c1.734,0,10.357,0,23.994,0C41.365,411.946,32.711,405.431,29.446,396.106z"/>
</g>
<g style="opacity:0.1;">
	<path d="M482.427,396.106h1.453c13.201,0,23.994-10.794,23.994-23.994v15.84c0,13.513-10.48,23.994-23.994,23.994
		c-1.734,0-10.355,0-23.994,0C470.509,411.946,479.164,405.431,482.427,396.106z"/>
</g>
<g>
	<path style="fill:#F5F7FA;" d="M507.875,339.963v32.148c0,13.2-10.793,23.994-23.994,23.994H255.937v-16.152
		c6.639,0,11.996-5.358,11.996-11.997s-5.357-11.997-11.996-11.997v-15.996L507.875,339.963L507.875,339.963z"/>
	<path style="fill:#F5F7FA;" d="M255.937,379.954v16.152H27.993c-13.2,0-23.994-10.794-23.994-23.994v-0.156v-31.992h251.938v15.996
		c-6.639,0-11.997,5.358-11.997,11.997S249.298,379.954,255.937,379.954z"/>
</g>
<path style="fill:#FFFFFF;" d="M27.993,372.112v-0.156v-31.992H3.999v31.992v0.156c0,13.2,10.794,23.994,23.994,23.994h23.994
	C38.787,396.106,27.993,385.312,27.993,372.112z"/>
<path style="fill:#656D78;" d="M507.875,52.194v287.77H255.937H3.999V52.194c0-13.195,10.794-23.994,23.994-23.994H483.88
	C497.082,28.2,507.875,38.999,507.875,52.194z M483.88,315.969V68.03V52.034h-15.996h-15.996h-23.994h-15.996h-15.996h-15.996
	H363.91H187.954h-31.992H123.97H91.978H59.985H27.993V68.03v247.939L483.88,315.969L483.88,315.969z"/>
<g style="opacity:0.2;">
	<path style="fill:#FFFFFF;" d="M27.993,68.03V52.194v-0.16h0.016C28.103,38.913,38.85,28.2,51.988,28.2H27.993
		c-13.2,0-23.994,10.799-23.994,23.994v287.77h23.994V315.97V68.03z"/>
</g>
<g style="opacity:0.3;">
	<path d="M483.88,68.03V52.194v-0.16h-0.016C483.77,38.913,473.024,28.2,459.885,28.2h23.994c13.201,0,23.994,10.799,23.994,23.994
		v287.77h-23.994V315.97V68.03H483.88z"/>
</g>
<g style="opacity:0.1;">
	<path d="M311.4,427.942l-3.555-15.996c-34.068,0-69.748,0-103.817,0l-3.554,15.996H311.4z"/>
</g>
<rect x="323.917" y="180.077" style="fill:#F6BB42;" width="15.996" height="31.992"/>
<polygon style="fill:#FFCE54;" points="283.929,172.083 323.919,180.081 323.919,212.073 283.929,220.071 251.938,196.077 "/>
<g style="opacity:0.2;">
	<polygon points="257.273,192.078 251.938,196.077 283.929,220.071 323.919,212.073 323.919,204.075 283.929,212.073 	"/>
</g>
<g style="opacity:0.3;">
	<polygon style="fill:#FFFFFF;" points="283.929,172.083 251.938,196.077 257.273,200.076 283.929,180.081 323.919,188.079 
		323.919,180.081 	"/>
</g>
<rect x="139.967" y="268.057" style="fill:#ED5564;" width="15.996" height="15.996"/>
<path style="fill:#FFCE54;" d="M235.942,260.061c4.397,0,7.998,3.601,7.998,7.998s-3.601,7.998-7.998,7.998
	s-7.998-3.601-7.998-7.998S231.545,260.061,235.942,260.061z"/>
<polygon style="fill:#ED5564;" points="235.544,188.079 243.94,188.079 243.94,204.075 235.942,204.075 235.786,204.075 
	227.944,204.075 227.944,188.079 "/>
<path style="fill:#FFCE54;" d="M235.942,132.092c-4.397,0-7.998-3.601-7.998-7.998s3.601-7.998,7.998-7.998s7.998,3.601,7.998,7.998
	S240.339,132.092,235.942,132.092z"/>
<polygon style="fill:#ED5564;" points="155.962,116.096 155.962,124.094 139.966,124.094 139.966,108.098 155.962,108.098 "/>
<path style="fill:#E6E9ED;" d="M323.919,212.073h15.996v-31.992h-15.996l-39.99-7.998l-31.991,23.994l31.991,23.994L323.919,212.073
	z M27.993,68.108h383.905v63.984v183.955H27.993v-15.996h23.994v-23.994v-23.994v-23.994v-23.994v-23.994v-23.994v-23.994v-23.994
	V84.104H27.993V68.108z M155.962,124.094v-7.998v-7.998h-15.996v15.996H155.962z M155.962,284.055v-15.996h-15.996v15.996H155.962z
	 M235.942,260.061c-4.397,0-7.998,3.601-7.998,7.998s3.601,7.998,7.998,7.998s7.998-3.601,7.998-7.998
	S240.339,260.061,235.942,260.061z M243.94,188.079h-8.396h-7.6v15.996h7.842h0.156h7.998V188.079z M235.942,132.092
	c4.397,0,7.998-3.601,7.998-7.998s-3.601-7.998-7.998-7.998s-7.998,3.601-7.998,7.998S231.545,132.092,235.942,132.092z"/>
<g style="opacity:0.3;">
	<rect x="323.917" y="180.077" style="fill:#FFFFFF;" width="15.996" height="7.998"/>
</g>
<g style="opacity:0.2;">
	<rect x="323.917" y="204.007" width="15.996" height="7.998"/>
</g>
<rect x="27.997" y="84.107" style="fill:#5D9CEC;" width="23.994" height="215.95"/>
<rect x="411.897" y="68.107" style="fill:#AAB2BC;" width="71.982" height="247.94"/>
<polygon style="fill:#FFCE54;" points="483.88,52.112 483.88,68.108 411.898,68.108 27.993,68.108 27.993,52.112 "/>
<g style="opacity:0.3;">
	<rect x="27.997" y="84.107" style="fill:#FFFFFF;" width="8.01" height="215.88"/>
</g>
<g style="opacity:0.2;">
	<rect x="43.987" y="84.107" width="8.01" height="215.88"/>
</g>
<g style="opacity:0.2;">
	<rect x="475.877" y="68.047" width="8.01" height="248"/>
</g>
<g style="opacity:0.3;">
	<rect x="411.897" y="68.047" style="fill:#FFFFFF;" width="8.01" height="248"/>
</g>
<g>
	<path style="fill:#3A3847;" d="M44.231,64.046c-2.21,0-4.038-1.788-4.038-3.999c0-2.21,1.75-3.999,3.952-3.999h0.086
		c2.202,0,3.999,1.789,3.999,3.999C48.23,62.258,46.434,64.046,44.231,64.046z"/>
	<path style="fill:#3A3847;" d="M60.228,64.046c-2.21,0-4.038-1.788-4.038-3.999c0-2.21,1.75-3.999,3.952-3.999h0.086
		c2.202,0,3.999,1.789,3.999,3.999C64.227,62.258,62.43,64.046,60.228,64.046z"/>
	<path style="fill:#3A3847;" d="M76.224,64.046c-2.21,0-4.038-1.788-4.038-3.999c0-2.21,1.75-3.999,3.952-3.999h0.086
		c2.202,0,3.999,1.789,3.999,3.999C80.223,62.258,78.426,64.046,76.224,64.046z"/>
	<path style="fill:#3A3847;" d="M428.136,168.021c-2.209,0-4.037-1.788-4.037-3.999c0-2.21,1.75-3.999,3.951-3.999h0.086
		c2.203,0,4,1.789,4,3.999C432.136,166.233,430.339,168.021,428.136,168.021z"/>
	<path style="fill:#3A3847;" d="M507.875,343.853H3.999c-2.21,0-3.999-1.789-3.999-3.999s1.789-3.999,3.999-3.999h503.875
		c2.211,0,4,1.789,4,3.999S510.085,343.853,507.875,343.853z"/>
	<path style="fill:#3A3847;" d="M255.937,383.828c-8.818,0-15.996-7.17-15.996-15.996s7.178-15.996,15.996-15.996
		s15.996,7.17,15.996,15.996S264.755,383.828,255.937,383.828z M255.937,359.833c-4.413,0-7.998,3.593-7.998,7.998
		s3.585,7.998,7.998,7.998c4.412,0,7.998-3.593,7.998-7.998S260.349,359.833,255.937,359.833z"/>
	<path style="fill:#3A3847;" d="M188.001,487.818c-0.281,0-0.578-0.031-0.867-0.094c-2.156-0.484-3.515-2.617-3.038-4.772
		l15.996-71.982c0.476-2.147,2.608-3.507,4.772-3.038c2.156,0.484,3.515,2.616,3.039,4.771l-15.996,71.982
		C191.492,486.552,189.836,487.818,188.001,487.818z"/>
	<path style="fill:#3A3847;" d="M323.873,487.818c-1.834,0-3.49-1.266-3.904-3.133l-15.996-71.982
		c-0.477-2.155,0.883-4.287,3.039-4.771c2.17-0.469,4.295,0.891,4.771,3.038l15.996,71.982c0.477,2.155-0.883,4.288-3.039,4.772
		C324.451,487.787,324.154,487.818,323.873,487.818z"/>
	<path style="fill:#3A3847;" d="M335.917,487.818h-159.96c-2.211,0-3.999-1.789-3.999-3.999c0-2.211,1.788-3.999,3.999-3.999h159.96
		c2.211,0,3.998,1.788,3.998,3.999C339.916,486.029,338.128,487.818,335.917,487.818z"/>
	<path style="fill:#3A3847;" d="M483.88,319.984H27.993c-2.21,0-3.999-1.789-3.999-3.999V52.049c0-2.21,1.789-3.999,3.999-3.999
		H483.88c2.211,0,4,1.789,4,3.999v263.936C487.88,318.195,486.091,319.984,483.88,319.984z M31.992,311.986h447.89V56.048H31.992
		V311.986z"/>
	<path style="fill:#3A3847;" d="M483.88,399.964H27.993C12.559,399.964,0,387.404,0,371.971V52.049
		c0-15.434,12.56-27.993,27.993-27.993H483.88c15.434,0,27.994,12.56,27.994,27.993v319.922
		C511.875,387.405,499.314,399.964,483.88,399.964z M27.993,32.054c-11.028,0-19.995,8.971-19.995,19.995v319.922
		c0,11.028,8.967,19.995,19.995,19.995H483.88c11.029,0,19.996-8.967,19.996-19.995V52.049c0-11.024-8.967-19.995-19.996-19.995
		C483.88,32.054,27.993,32.054,27.993,32.054z"/>
	<path style="fill:#3A3847;" d="M483.88,415.835H27.993C12.294,415.835,0,403.541,0,387.842v-15.996c0-2.21,1.789-3.999,3.999-3.999
		s3.999,1.789,3.999,3.999v15.996c0,11.216,8.779,19.995,19.995,19.995H483.88c11.217,0,19.996-8.779,19.996-19.995v-15.871
		c0-2.21,1.789-3.999,3.998-3.999c2.211,0,4,1.789,4,3.999v15.871C511.875,403.541,499.58,415.835,483.88,415.835z"/>
	<path style="fill:#3A3847;" d="M483.88,72.044H27.993c-2.21,0-3.999-1.788-3.999-3.999c0-2.21,1.789-3.999,3.999-3.999H483.88
		c2.211,0,4,1.789,4,3.999C487.88,70.256,486.091,72.044,483.88,72.044z"/>
	<path style="fill:#3A3847;" d="M51.987,303.988c-2.21,0-3.999-1.789-3.999-3.999V84.041c0-2.21,1.789-3.999,3.999-3.999
		s3.999,1.789,3.999,3.999v215.947C55.986,302.199,54.198,303.988,51.987,303.988z"/>
	<path style="fill:#3A3847;" d="M411.898,319.984c-2.209,0-3.998-1.789-3.998-3.999V68.045c0-2.21,1.789-3.999,3.998-3.999
		c2.211,0,4,1.789,4,3.999v247.939C415.898,318.195,414.109,319.984,411.898,319.984z"/>
	<path style="fill:#3A3847;" d="M483.88,136.029h-71.982c-2.209,0-3.998-1.788-3.998-3.999c0-2.21,1.789-3.999,3.998-3.999h71.982
		c2.211,0,4,1.789,4,3.999C487.88,134.241,486.091,136.029,483.88,136.029z"/>
	<path style="fill:#3A3847;" d="M51.987,112.035H27.993c-2.21,0-3.999-1.788-3.999-3.999c0-2.21,1.789-3.999,3.999-3.999h23.994
		c2.21,0,3.999,1.789,3.999,3.999C55.986,110.247,54.198,112.035,51.987,112.035z"/>
	<path style="fill:#3A3847;" d="M51.987,136.029H27.993c-2.21,0-3.999-1.788-3.999-3.999c0-2.21,1.789-3.999,3.999-3.999h23.994
		c2.21,0,3.999,1.789,3.999,3.999C55.986,134.241,54.198,136.029,51.987,136.029z"/>
	<path style="fill:#3A3847;" d="M51.987,160.023H27.993c-2.21,0-3.999-1.788-3.999-3.999c0-2.21,1.789-3.999,3.999-3.999h23.994
		c2.21,0,3.999,1.789,3.999,3.999C55.986,158.235,54.198,160.023,51.987,160.023z"/>
	<path style="fill:#3A3847;" d="M51.987,184.017H27.993c-2.21,0-3.999-1.788-3.999-3.999c0-2.21,1.789-3.999,3.999-3.999h23.994
		c2.21,0,3.999,1.789,3.999,3.999C55.986,182.229,54.198,184.017,51.987,184.017z"/>
	<path style="fill:#3A3847;" d="M51.987,208.011H27.993c-2.21,0-3.999-1.789-3.999-3.999s1.789-3.999,3.999-3.999h23.994
		c2.21,0,3.999,1.789,3.999,3.999S54.198,208.011,51.987,208.011z"/>
	<path style="fill:#3A3847;" d="M51.987,232.005H27.993c-2.21,0-3.999-1.789-3.999-3.999s1.789-3.999,3.999-3.999h23.994
		c2.21,0,3.999,1.789,3.999,3.999S54.198,232.005,51.987,232.005z"/>
	<path style="fill:#3A3847;" d="M51.987,255.999H27.993c-2.21,0-3.999-1.789-3.999-3.999s1.789-3.999,3.999-3.999h23.994
		c2.21,0,3.999,1.789,3.999,3.999S54.198,255.999,51.987,255.999z"/>
	<path style="fill:#3A3847;" d="M51.987,279.994H27.993c-2.21,0-3.999-1.789-3.999-3.999s1.789-3.999,3.999-3.999h23.994
		c2.21,0,3.999,1.789,3.999,3.999S54.198,279.994,51.987,279.994z"/>
	<path style="fill:#3A3847;" d="M51.987,303.988H27.993c-2.21,0-3.999-1.789-3.999-3.999s1.789-3.999,3.999-3.999h23.994
		c2.21,0,3.999,1.789,3.999,3.999S54.198,303.988,51.987,303.988z"/>
	<path style="fill:#3A3847;" d="M51.987,88.041H27.993c-2.21,0-3.999-1.788-3.999-3.999c0-2.21,1.789-3.999,3.999-3.999h23.994
		c2.21,0,3.999,1.789,3.999,3.999C55.986,86.252,54.198,88.041,51.987,88.041z"/>
	<path style="fill:#3A3847;" d="M467.884,96.039h-39.99c-2.209,0-3.998-1.788-3.998-3.999c0-2.21,1.789-3.999,3.998-3.999h39.99
		c2.211,0,4,1.789,4,3.999C471.884,94.25,470.095,96.039,467.884,96.039z"/>
	<path style="fill:#3A3847;" d="M467.884,112.035h-39.99c-2.209,0-3.998-1.788-3.998-3.999c0-2.21,1.789-3.999,3.998-3.999h39.99
		c2.211,0,4,1.789,4,3.999C471.884,110.247,470.095,112.035,467.884,112.035z"/>
	<path style="fill:#3A3847;" d="M467.884,168.021H443.89c-2.209,0-3.998-1.788-3.998-3.999c0-2.21,1.789-3.999,3.998-3.999h23.994
		c2.211,0,4,1.789,4,3.999C471.884,166.233,470.095,168.021,467.884,168.021z"/>
	<path style="fill:#3A3847;" d="M428.136,192.015c-2.209,0-4.037-1.788-4.037-3.999c0-2.21,1.75-3.999,3.951-3.999h0.086
		c2.203,0,4,1.789,4,3.999C432.136,190.227,430.339,192.015,428.136,192.015z"/>
	<path style="fill:#3A3847;" d="M467.884,192.015H443.89c-2.209,0-3.998-1.788-3.998-3.999c0-2.21,1.789-3.999,3.998-3.999h23.994
		c2.211,0,4,1.789,4,3.999C471.884,190.227,470.095,192.015,467.884,192.015z"/>
	<path style="fill:#3A3847;" d="M428.136,216.009c-2.209,0-4.037-1.789-4.037-3.999s1.75-3.999,3.951-3.999h0.086
		c2.203,0,4,1.789,4,3.999S430.339,216.009,428.136,216.009z"/>
	<path style="fill:#3A3847;" d="M467.884,216.009H443.89c-2.209,0-3.998-1.789-3.998-3.999s1.789-3.999,3.998-3.999h23.994
		c2.211,0,4,1.789,4,3.999S470.095,216.009,467.884,216.009z"/>
	<path style="fill:#3A3847;" d="M428.136,240.003c-2.209,0-4.037-1.789-4.037-3.999s1.75-3.999,3.951-3.999h0.086
		c2.203,0,4,1.789,4,3.999S430.339,240.003,428.136,240.003z"/>
	<path style="fill:#3A3847;" d="M467.884,240.003H443.89c-2.209,0-3.998-1.789-3.998-3.999s1.789-3.999,3.998-3.999h23.994
		c2.211,0,4,1.789,4,3.999S470.095,240.003,467.884,240.003z"/>
	<path style="fill:#3A3847;" d="M428.136,263.998c-2.209,0-4.037-1.789-4.037-3.999s1.75-3.999,3.951-3.999h0.086
		c2.203,0,4,1.789,4,3.999S430.339,263.998,428.136,263.998z"/>
	<path style="fill:#3A3847;" d="M467.884,263.998H443.89c-2.209,0-3.998-1.789-3.998-3.999S441.681,256,443.89,256h23.994
		c2.211,0,4,1.789,4,3.999S470.095,263.998,467.884,263.998z"/>
	<path style="fill:#3A3847;" d="M428.136,287.992c-2.209,0-4.037-1.789-4.037-3.999s1.75-3.999,3.951-3.999h0.086
		c2.203,0,4,1.789,4,3.999S430.339,287.992,428.136,287.992z"/>
	<path style="fill:#3A3847;" d="M467.884,287.992H443.89c-2.209,0-3.998-1.789-3.998-3.999s1.789-3.999,3.998-3.999h23.994
		c2.211,0,4,1.789,4,3.999S470.095,287.992,467.884,287.992z"/>
	<path style="fill:#3A3847;" d="M235.544,192.015c-2.031,0-3.765-1.543-3.976-3.604c-3.843-38.982-36.351-68.378-75.606-68.378
		c-2.211,0-3.999-1.788-3.999-3.999c0-2.21,1.788-3.999,3.999-3.999c43.388,0,79.316,32.496,83.573,75.587
		c0.211,2.199-1.391,4.155-3.593,4.374C235.81,192.007,235.677,192.015,235.544,192.015z"/>
	<path style="fill:#3A3847;" d="M156.157,279.994c-2.211,0-3.999-1.789-3.999-3.999s1.788-3.999,3.999-3.999
		c39.256,0,71.771-29.395,75.614-68.374c0.226-2.198,2.241-3.733,4.374-3.585c2.203,0.219,3.804,2.175,3.593,4.374
		C235.481,247.498,199.545,279.994,156.157,279.994z"/>
	<path style="fill:#3A3847;" d="M283.929,224.007c-0.857,0-1.701-0.277-2.396-0.801l-31.993-23.994
		c-1.007-0.754-1.601-1.94-1.601-3.198s0.594-2.444,1.601-3.198l31.993-23.994c0.906-0.684,2.061-0.938,3.178-0.723l39.99,7.998
		c1.875,0.375,3.219,2.016,3.219,3.921v31.992c0,1.906-1.344,3.546-3.219,3.921l-39.99,7.998
		C284.453,223.98,284.187,224.007,283.929,224.007z M258.601,196.014l26.297,19.722l35.023-7.002v-25.439l-35.023-7.002
		L258.601,196.014z"/>
	<path style="fill:#3A3847;" d="M323.919,224.007c-2.209,0-3.998-1.789-3.998-3.999V172.02c0-2.21,1.789-3.999,3.998-3.999
		c2.211,0,4,1.789,4,3.999v47.988C327.919,222.218,326.13,224.007,323.919,224.007z"/>
	<path style="fill:#3A3847;" d="M291.927,200.013h-39.989c-2.21,0-3.999-1.789-3.999-3.999s1.789-3.999,3.999-3.999h39.989
		c2.211,0,4,1.789,4,3.999S294.138,200.013,291.927,200.013z"/>
	<path style="fill:#3A3847;" d="M235.942,191.96c-2.21,0-3.999-1.788-3.999-3.999v-55.932c0-2.21,1.788-3.999,3.999-3.999
		s3.999,1.789,3.999,3.999v55.932C239.941,190.172,238.152,191.96,235.942,191.96z"/>
	<path style="fill:#3A3847;" d="M235.942,136.029c-6.616,0-11.997-5.381-11.997-11.997c0-6.615,5.381-11.997,11.997-11.997
		s11.997,5.382,11.997,11.997C247.939,130.648,242.558,136.029,235.942,136.029z M235.942,120.033c-2.203,0-3.999,1.793-3.999,3.999
		c0,2.207,1.796,3.999,3.999,3.999s3.999-1.792,3.999-3.999C239.941,121.826,238.145,120.033,235.942,120.033z"/>
	<path style="fill:#3A3847;" d="M235.942,263.974c-2.21,0-3.999-1.789-3.999-3.999v-55.932c0-2.21,1.788-3.999,3.999-3.999
		s3.999,1.789,3.999,3.999v55.932C239.941,262.185,238.152,263.974,235.942,263.974z"/>
	<path style="fill:#3A3847;" d="M235.942,279.97c-6.616,0-11.997-5.381-11.997-11.997c0-6.615,5.381-11.997,11.997-11.997
		s11.997,5.382,11.997,11.997C247.939,274.589,242.558,279.97,235.942,279.97z M235.942,263.974c-2.203,0-3.999,1.789-3.999,3.999
		s1.796,3.999,3.999,3.999s3.999-1.789,3.999-3.999S238.145,263.974,235.942,263.974z"/>
	<path style="fill:#3A3847;" d="M339.916,216.009H323.92c-2.209,0-3.998-1.789-3.998-3.999v-31.992c0-2.21,1.789-3.999,3.998-3.999
		h15.996c2.211,0,4,1.789,4,3.999v31.992C343.916,214.22,342.126,216.009,339.916,216.009z M327.919,208.011h7.998v-23.994h-7.998
		V208.011z"/>
	<path style="fill:#3A3847;" d="M155.962,128.031h-15.996c-2.211,0-3.999-1.788-3.999-3.999v-15.996c0-2.21,1.788-3.999,3.999-3.999
		h15.996c2.21,0,3.999,1.789,3.999,3.999v15.996C159.961,126.243,158.172,128.031,155.962,128.031z M143.965,120.033h7.998v-7.998
		h-7.998V120.033z"/>
	<path style="fill:#3A3847;" d="M155.962,287.992h-15.996c-2.211,0-3.999-1.789-3.999-3.999v-15.996c0-2.21,1.788-3.999,3.999-3.999
		h15.996c2.21,0,3.999,1.789,3.999,3.999v15.996C159.961,286.203,158.172,287.992,155.962,287.992z M143.965,279.994h7.998v-7.998
		h-7.998V279.994z"/>
	<path style="fill:#3A3847;" d="M243.94,208.011h-15.996c-2.211,0-3.999-1.789-3.999-3.999v-15.996c0-2.21,1.788-3.999,3.999-3.999
		h15.996c2.21,0,3.999,1.789,3.999,3.999v15.996C247.939,206.222,246.15,208.011,243.94,208.011z M231.943,200.013h7.998v-7.998
		h-7.998V200.013z"/>
</g>
<g>
</g>
<g>
</g>
<g>
</g>
<g>
</g>
<g>
</g>
<g>
</g>
<g>
</g>
<g>
</g>
<g>
</g>
<g>
</g>
<g>
</g>
<g>
</g>
<g>
</g>
<g>
</g>
<g>
</g>
</svg>
